<?xml version="1.0" standalone="no"?><!DOCTYPE svg PUBLIC "-//W3C//DTD SVG 1.1//EN" "http://www.w3.org/Graphics/SVG/1.1/DTD/svg11.dtd"><svg t="1501998660373" class="icon" style="" viewBox="0 0 1024 1024" version="1.1" xmlns="http://www.w3.org/2000/svg" p-id="1466" xmlns:xlink="http://www.w3.org/1999/xlink" width="128" height="128"><defs><style type="text/css">html, * { user-select: text !important; }
</style></defs><path d="M512.283 63.203c-246.647 0-446.594 199.947-446.594 446.594s199.947 446.594 446.594 446.594 446.594-199.947 446.594-446.594S758.931 63.203 512.283 63.203z m-0.95 861.537c-228.668 0-414.041-185.372-414.041-414.041s185.373-414.04 414.041-414.04S925.374 282.031 925.374 510.7 740.002 924.74 511.333 924.74z" fill="#3F51B5" p-id="1467"></path><path d="M319.333 512.223m-22.5 0a22.5 22.5 0 1 0 45 0 22.5 22.5 0 1 0-45 0Z" fill="#3F51B5" p-id="1468"></path><path d="M415.808 448.209m-22.5 0a22.5 22.5 0 1 0 45 0 22.5 22.5 0 1 0-45 0Z" fill="#3F51B5" p-id="1469"></path><path d="M608.18 641.56m-22.5 0a22.5 22.5 0 1 0 45 0 22.5 22.5 0 1 0-45 0Z" fill="#3F51B5" p-id="1470"></path><path d="M704.137 512.127m-22.5 0a22.5 22.5 0 1 0 45 0 22.5 22.5 0 1 0-45 0Z" fill="#3F51B5" p-id="1471"></path><path d="M512 512m-22.5 0a22.5 22.5 0 1 0 45 0 22.5 22.5 0 1 0-45 0Z" fill="#3F51B5" p-id="1472"></path><path d="M316.55 508.048l96.469-64.016 5.529 8.332-96.47 64.016z" fill="#3F51B5" p-id="1473"></path><path d="M413.056 452.382l5.527-8.334 96.194 63.794-5.527 8.334z" fill="#3F51B5" p-id="1474"></path><path d="M507.988 516.326l8-6 96.18 128.204-7.998 6.001z" fill="#3F51B5" p-id="1475"></path><path d="M604.181 638.587l95.955-128.34 8.01 5.988-95.955 128.34z" fill="#3F51B5" p-id="1476"></path></svg>