<?xml version="1.0" standalone="no"?><!DOCTYPE svg PUBLIC "-//W3C//DTD SVG 1.1//EN" "http://www.w3.org/Graphics/SVG/1.1/DTD/svg11.dtd"><svg t="1501998730286" class="icon" style="" viewBox="0 0 1024 1024" version="1.1" xmlns="http://www.w3.org/2000/svg" p-id="1628" xmlns:xlink="http://www.w3.org/1999/xlink" width="128" height="128"><defs><style type="text/css">html, * { user-select: text !important; }
</style></defs><path d="M512.283 65.203c-246.647 0-446.594 199.947-446.594 446.594s199.947 446.594 446.594 446.594 446.594-199.947 446.594-446.594S758.931 65.203 512.283 65.203z m-0.95 861.537c-228.668 0-414.041-185.372-414.041-414.041s185.373-414.04 414.041-414.04S925.374 284.031 925.374 512.7 740.002 926.74 511.333 926.74z" fill="#3F51B5" p-id="1629"></path><path d="M421.406 426.709v261.512h80.043V319.996h-80.043zM319.63 520.558h80.043v165.541H319.63zM523.181 463.554h80.043v222.545h-80.043zM624.957 374.097H705v312.002h-80.043z" fill="#3F51B5" p-id="1630"></path></svg>